<mxfile host="app.diagrams.net" agent="Mozilla/5.0 (Windows NT 10.0; Win64; x64) AppleWebKit/537.36 (KHTML, like Gecko) Chrome/127.0.0.0 Safari/537.36" version="24.7.7">
  <diagram name="Page-1" id="X7ndcIK_ekL1AkCiITUf">
    <mxGraphModel dx="1126" dy="1081" grid="1" gridSize="10" guides="1" tooltips="1" connect="1" arrows="1" fold="1" page="1" pageScale="1" pageWidth="827" pageHeight="1169" math="0" shadow="0">
      <root>
        <mxCell id="0" />
        <mxCell id="1" parent="0" />
        <mxCell id="9lcuN-YRpTNTwfFY60Kl-35" value="" style="rounded=1;whiteSpace=wrap;html=1;sketch=1;curveFitting=1;jiggle=2;fillColor=#ffe6cc;strokeColor=#d79b00;" parent="1" vertex="1">
          <mxGeometry x="200" y="110" width="580" height="240" as="geometry" />
        </mxCell>
        <mxCell id="9lcuN-YRpTNTwfFY60Kl-36" value="" style="rounded=1;whiteSpace=wrap;html=1;sketch=1;curveFitting=1;jiggle=2;fillColor=#ffe6cc;strokeColor=#d79b00;" parent="1" vertex="1">
          <mxGeometry x="210" y="150" width="560" height="190" as="geometry" />
        </mxCell>
        <mxCell id="9lcuN-YRpTNTwfFY60Kl-18" value="" style="group;fontStyle=1" parent="1" vertex="1" connectable="0">
          <mxGeometry x="547" y="384" width="240" height="240" as="geometry" />
        </mxCell>
        <mxCell id="9lcuN-YRpTNTwfFY60Kl-2" value="" style="rounded=1;whiteSpace=wrap;html=1;sketch=1;curveFitting=1;jiggle=2;fillColor=#dae8fc;strokeColor=#6c8ebf;" parent="9lcuN-YRpTNTwfFY60Kl-18" vertex="1">
          <mxGeometry width="240" height="240" as="geometry" />
        </mxCell>
        <mxCell id="9lcuN-YRpTNTwfFY60Kl-4" value="" style="rounded=1;whiteSpace=wrap;html=1;sketch=1;curveFitting=1;jiggle=2;fillColor=#dae8fc;strokeColor=#6c8ebf;" parent="9lcuN-YRpTNTwfFY60Kl-18" vertex="1">
          <mxGeometry x="10" y="40" width="220" height="190" as="geometry" />
        </mxCell>
        <mxCell id="9lcuN-YRpTNTwfFY60Kl-6" value="BACK END" style="text;strokeColor=none;align=center;fillColor=none;html=1;verticalAlign=middle;whiteSpace=wrap;rounded=0;fontStyle=1;fontSize=15;" parent="9lcuN-YRpTNTwfFY60Kl-18" vertex="1">
          <mxGeometry x="10" width="220" height="40" as="geometry" />
        </mxCell>
        <mxCell id="9lcuN-YRpTNTwfFY60Kl-9" value="" style="shape=image;verticalLabelPosition=bottom;labelBackgroundColor=default;verticalAlign=top;aspect=fixed;imageAspect=0;image=https://d3uyj2gj5wa63n.cloudfront.net/wp-content/uploads/2021/02/fastapi-logo.png;" parent="9lcuN-YRpTNTwfFY60Kl-18" vertex="1">
          <mxGeometry x="50.690000000000055" y="48.34500000000003" width="138.61" height="50" as="geometry" />
        </mxCell>
        <mxCell id="9lcuN-YRpTNTwfFY60Kl-10" value="" style="shape=image;verticalLabelPosition=bottom;labelBackgroundColor=default;verticalAlign=top;aspect=fixed;imageAspect=0;image=https://upload.wikimedia.org/wikipedia/commons/thumb/8/82/Text-x-python.svg/1024px-Text-x-python.svg.png;" parent="9lcuN-YRpTNTwfFY60Kl-18" vertex="1">
          <mxGeometry x="78" y="106.69" width="84" height="84" as="geometry" />
        </mxCell>
        <mxCell id="9lcuN-YRpTNTwfFY60Kl-12" value="api / app.py" style="text;strokeColor=none;align=center;fillColor=none;html=1;verticalAlign=middle;whiteSpace=wrap;rounded=0;fontSize=14;fontStyle=3" parent="9lcuN-YRpTNTwfFY60Kl-18" vertex="1">
          <mxGeometry x="10" y="190.69" width="220" height="30" as="geometry" />
        </mxCell>
        <mxCell id="9lcuN-YRpTNTwfFY60Kl-19" value="" style="endArrow=classic;html=1;rounded=0;entryX=0;entryY=0.5;entryDx=0;entryDy=0;sketch=1;curveFitting=1;jiggle=2;" parent="1" source="9lcuN-YRpTNTwfFY60Kl-13" target="9lcuN-YRpTNTwfFY60Kl-1" edge="1">
          <mxGeometry width="50" height="50" relative="1" as="geometry">
            <mxPoint x="150" y="474" as="sourcePoint" />
            <mxPoint x="440" y="674" as="targetPoint" />
          </mxGeometry>
        </mxCell>
        <mxCell id="9lcuN-YRpTNTwfFY60Kl-20" value="" style="group" parent="1" vertex="1" connectable="0">
          <mxGeometry x="44" y="466" width="78" height="103" as="geometry" />
        </mxCell>
        <mxCell id="9lcuN-YRpTNTwfFY60Kl-13" value="" style="sketch=0;outlineConnect=0;fontColor=#232F3E;gradientColor=none;fillColor=#232F3D;strokeColor=none;dashed=0;verticalLabelPosition=bottom;verticalAlign=top;align=center;html=1;fontSize=12;fontStyle=0;aspect=fixed;pointerEvents=1;shape=mxgraph.aws4.user;" parent="9lcuN-YRpTNTwfFY60Kl-20" vertex="1">
          <mxGeometry width="78" height="78" as="geometry" />
        </mxCell>
        <mxCell id="9lcuN-YRpTNTwfFY60Kl-14" value="user" style="text;strokeColor=none;align=center;fillColor=none;html=1;verticalAlign=middle;whiteSpace=wrap;rounded=0;fontSize=14;fontStyle=2" parent="9lcuN-YRpTNTwfFY60Kl-20" vertex="1">
          <mxGeometry x="6" y="73" width="70" height="30" as="geometry" />
        </mxCell>
        <mxCell id="9lcuN-YRpTNTwfFY60Kl-21" value="" style="endArrow=classic;html=1;rounded=0;entryX=1;entryY=0.5;entryDx=0;entryDy=0;sketch=1;curveFitting=1;jiggle=2;exitX=0;exitY=0.5;exitDx=0;exitDy=0;" parent="1" source="9lcuN-YRpTNTwfFY60Kl-2" target="9lcuN-YRpTNTwfFY60Kl-1" edge="1">
          <mxGeometry width="50" height="50" relative="1" as="geometry">
            <mxPoint x="523" y="795" as="sourcePoint" />
            <mxPoint x="595" y="794" as="targetPoint" />
          </mxGeometry>
        </mxCell>
        <mxCell id="9lcuN-YRpTNTwfFY60Kl-22" value="picture" style="text;strokeColor=none;align=center;fillColor=none;html=1;verticalAlign=middle;whiteSpace=wrap;rounded=0;" parent="1" vertex="1">
          <mxGeometry x="465" y="460" width="60" height="30" as="geometry" />
        </mxCell>
        <mxCell id="9lcuN-YRpTNTwfFY60Kl-24" value="prediction" style="text;strokeColor=none;align=center;fillColor=none;html=1;verticalAlign=middle;whiteSpace=wrap;rounded=0;" parent="1" vertex="1">
          <mxGeometry x="465" y="502.5" width="60" height="30" as="geometry" />
        </mxCell>
        <mxCell id="9lcuN-YRpTNTwfFY60Kl-28" value="" style="shape=image;verticalLabelPosition=bottom;labelBackgroundColor=default;verticalAlign=top;aspect=fixed;imageAspect=0;image=https://cdn.icon-icons.com/icons2/2699/PNG/512/pytorch_logo_icon_169823.png;clipPath=inset(16.67% 5% 16.67% 5.33%);" parent="1" vertex="1">
          <mxGeometry x="341.27" y="150" width="123.73" height="46" as="geometry" />
        </mxCell>
        <mxCell id="9lcuN-YRpTNTwfFY60Kl-30" value="MODEL TRAINING&amp;nbsp;&lt;div&gt;-&lt;/div&gt;&lt;div&gt;MANUAL SINGLE-RUN SETUP&lt;/div&gt;&lt;div&gt;&lt;br&gt;&lt;/div&gt;" style="text;strokeColor=#666666;align=center;fillColor=#f5f5f5;html=1;verticalAlign=middle;whiteSpace=wrap;rounded=0;fontStyle=1;fontFamily=Helvetica;fontSize=15;rotation=0;fontColor=#333333;" parent="1" vertex="1">
          <mxGeometry x="827" y="110" width="123" height="240" as="geometry" />
        </mxCell>
        <mxCell id="9lcuN-YRpTNTwfFY60Kl-31" value="" style="endArrow=classic;html=1;rounded=0;sketch=1;curveFitting=1;jiggle=2;exitX=0;exitY=0.5;exitDx=0;exitDy=0;entryX=0.013;entryY=0.442;entryDx=0;entryDy=0;entryPerimeter=0;" parent="1" target="9lcuN-YRpTNTwfFY60Kl-2" edge="1">
          <mxGeometry width="50" height="50" relative="1" as="geometry">
            <mxPoint x="445" y="490" as="sourcePoint" />
            <mxPoint x="540" y="490" as="targetPoint" />
          </mxGeometry>
        </mxCell>
        <mxCell id="9lcuN-YRpTNTwfFY60Kl-47" value="" style="group" parent="1" vertex="1" connectable="0">
          <mxGeometry x="203" y="384" width="240" height="240" as="geometry" />
        </mxCell>
        <mxCell id="9lcuN-YRpTNTwfFY60Kl-1" value="" style="rounded=1;whiteSpace=wrap;html=1;sketch=1;curveFitting=1;jiggle=2;fillColor=#d5e8d4;strokeColor=#82b366;" parent="9lcuN-YRpTNTwfFY60Kl-47" vertex="1">
          <mxGeometry width="240" height="240" as="geometry" />
        </mxCell>
        <mxCell id="9lcuN-YRpTNTwfFY60Kl-3" value="" style="rounded=1;whiteSpace=wrap;html=1;sketch=1;curveFitting=1;jiggle=2;fillColor=#d5e8d4;strokeColor=#82b366;" parent="9lcuN-YRpTNTwfFY60Kl-47" vertex="1">
          <mxGeometry x="10" y="40" width="220" height="190" as="geometry" />
        </mxCell>
        <mxCell id="9lcuN-YRpTNTwfFY60Kl-5" value="FRONT END" style="text;strokeColor=none;align=center;fillColor=none;html=1;verticalAlign=middle;whiteSpace=wrap;rounded=0;fontStyle=1;fontSize=15;" parent="9lcuN-YRpTNTwfFY60Kl-47" vertex="1">
          <mxGeometry x="10" width="220" height="40" as="geometry" />
        </mxCell>
        <mxCell id="9lcuN-YRpTNTwfFY60Kl-7" value="" style="shape=image;verticalLabelPosition=bottom;labelBackgroundColor=default;verticalAlign=top;aspect=fixed;imageAspect=0;image=https://upload.wikimedia.org/wikipedia/commons/thumb/7/77/Streamlit-logo-primary-colormark-darktext.png/1024px-Streamlit-logo-primary-colormark-darktext.png;" parent="9lcuN-YRpTNTwfFY60Kl-47" vertex="1">
          <mxGeometry x="63" y="40" width="114" height="66.69" as="geometry" />
        </mxCell>
        <mxCell id="9lcuN-YRpTNTwfFY60Kl-8" value="" style="shape=image;verticalLabelPosition=bottom;labelBackgroundColor=default;verticalAlign=top;aspect=fixed;imageAspect=0;image=https://upload.wikimedia.org/wikipedia/commons/thumb/8/82/Text-x-python.svg/1024px-Text-x-python.svg.png;" parent="9lcuN-YRpTNTwfFY60Kl-47" vertex="1">
          <mxGeometry x="78" y="106.69" width="84" height="84" as="geometry" />
        </mxCell>
        <mxCell id="9lcuN-YRpTNTwfFY60Kl-11" value="Streamlit / app.py" style="text;strokeColor=none;align=center;fillColor=none;html=1;verticalAlign=middle;whiteSpace=wrap;rounded=0;fontSize=14;fontStyle=3" parent="9lcuN-YRpTNTwfFY60Kl-47" vertex="1">
          <mxGeometry x="10" y="190.69000000000005" width="220" height="30" as="geometry" />
        </mxCell>
        <mxCell id="9lcuN-YRpTNTwfFY60Kl-50" value="" style="endArrow=classic;html=1;rounded=0;entryX=0.5;entryY=0;entryDx=0;entryDy=0;sketch=1;curveFitting=1;jiggle=2;exitX=0.5;exitY=1;exitDx=0;exitDy=0;" parent="1" source="9lcuN-YRpTNTwfFY60Kl-48" target="9lcuN-YRpTNTwfFY60Kl-6" edge="1">
          <mxGeometry width="50" height="50" relative="1" as="geometry">
            <mxPoint x="128" y="515" as="sourcePoint" />
            <mxPoint x="213" y="514" as="targetPoint" />
          </mxGeometry>
        </mxCell>
        <mxCell id="9lcuN-YRpTNTwfFY60Kl-62" value="" style="group" parent="1" vertex="1" connectable="0">
          <mxGeometry x="373" y="215.65" width="190" height="112.35" as="geometry" />
        </mxCell>
        <mxCell id="9lcuN-YRpTNTwfFY60Kl-40" value="notebooks / training.ipynb" style="text;strokeColor=none;align=center;fillColor=none;html=1;verticalAlign=middle;whiteSpace=wrap;rounded=0;fontSize=14;fontStyle=3" parent="9lcuN-YRpTNTwfFY60Kl-62" vertex="1">
          <mxGeometry y="82.35" width="190" height="30" as="geometry" />
        </mxCell>
        <mxCell id="9lcuN-YRpTNTwfFY60Kl-59" value="" style="shape=image;verticalLabelPosition=bottom;labelBackgroundColor=default;verticalAlign=top;aspect=fixed;imageAspect=0;image=https://images-wixmp-ed30a86b8c4ca887773594c2.wixmp.com/i/cf746430-7c65-4f24-a55c-f274153c830b/dec7wfw-02e0ee65-f443-4321-acd5-d1f1ef6f081e.png;" parent="9lcuN-YRpTNTwfFY60Kl-62" vertex="1">
          <mxGeometry x="51.83000000000004" width="86.35" height="86.35" as="geometry" />
        </mxCell>
        <mxCell id="9lcuN-YRpTNTwfFY60Kl-63" value="" style="group" parent="1" vertex="1" connectable="0">
          <mxGeometry x="249" y="219" width="80" height="106" as="geometry" />
        </mxCell>
        <mxCell id="9lcuN-YRpTNTwfFY60Kl-51" value="" style="shape=image;verticalLabelPosition=bottom;labelBackgroundColor=default;verticalAlign=top;aspect=fixed;imageAspect=0;image=https://static.thenounproject.com/png/2200230-200.png;" parent="9lcuN-YRpTNTwfFY60Kl-63" vertex="1">
          <mxGeometry width="80" height="80" as="geometry" />
        </mxCell>
        <mxCell id="9lcuN-YRpTNTwfFY60Kl-58" value="picture&lt;div&gt;dataset&lt;/div&gt;" style="text;strokeColor=none;align=center;fillColor=none;html=1;verticalAlign=middle;whiteSpace=wrap;rounded=0;fontSize=14;fontStyle=3" parent="9lcuN-YRpTNTwfFY60Kl-63" vertex="1">
          <mxGeometry x="5" y="76" width="70" height="30" as="geometry" />
        </mxCell>
        <mxCell id="9lcuN-YRpTNTwfFY60Kl-64" value="" style="endArrow=classic;html=1;rounded=0;exitX=1;exitY=0.5;exitDx=0;exitDy=0;entryX=0;entryY=0.5;entryDx=0;entryDy=0;sketch=1;curveFitting=1;jiggle=2;" parent="1" source="9lcuN-YRpTNTwfFY60Kl-51" target="9lcuN-YRpTNTwfFY60Kl-59" edge="1">
          <mxGeometry width="50" height="50" relative="1" as="geometry">
            <mxPoint x="480" y="480" as="sourcePoint" />
            <mxPoint x="530" y="430" as="targetPoint" />
          </mxGeometry>
        </mxCell>
        <mxCell id="9lcuN-YRpTNTwfFY60Kl-65" value="" style="endArrow=classic;html=1;rounded=0;exitX=1;exitY=0.5;exitDx=0;exitDy=0;sketch=1;curveFitting=1;jiggle=2;" parent="1" source="9lcuN-YRpTNTwfFY60Kl-59" edge="1">
          <mxGeometry width="50" height="50" relative="1" as="geometry">
            <mxPoint x="339" y="268" as="sourcePoint" />
            <mxPoint x="625" y="257.9684674384948" as="targetPoint" />
          </mxGeometry>
        </mxCell>
        <mxCell id="9lcuN-YRpTNTwfFY60Kl-66" value="DEEP LEARNING TRAINING" style="text;strokeColor=none;align=center;fillColor=none;html=1;verticalAlign=middle;whiteSpace=wrap;rounded=0;fontStyle=1;fontSize=15;" parent="1" vertex="1">
          <mxGeometry x="210" y="110" width="530" height="40" as="geometry" />
        </mxCell>
        <mxCell id="9lcuN-YRpTNTwfFY60Kl-67" value="" style="shape=image;verticalLabelPosition=bottom;labelBackgroundColor=default;verticalAlign=top;aspect=fixed;imageAspect=0;image=data:image/png,iVBORw0KGgoAAAANSUhEUgAAASwAAAEsCAYAAAB5fY51AAAAAXNSR0IArs4c6QAAIABJREFUeF7sfQeYFtXV/7l3+sxbt7ILKiqWiDEqEgREF5AOxhKMsWIJiC1qjC0Wkthpxt6+WFJM5IsNFQWFlSoiEUtUjBqVtvWt09v9586yfEZBdpcFefO/8zz7LLrvO3Pmd8785pxzzzkXATsYAgwBhkCJIIBKRE4mJkOAIcAQAEZYzAgYAgyBkkGAEVbJqIoJyhBgCDDCYjbAEGAIlAwCjLBKRlVMUIYAQ4ARFrMBhgBDoGQQYIRVMqpigjIEGAKMsJgNMAQYAiWDACOsklEVE5QhwBBghMVsgCHAECgZBBhhlYyqmKAMAYYAIyxmAwwBhkDJIMAIq2RUxQRlCDAEGGExG2AIMARKBgFGWCWjKiYoQ4AhwAiL2QBDgCFQMggwwioZVTFBGQIMAUZYzAYYAgyBkkGAEVbJqIoJyhBgCDDCYjbAEGAIlAwCjLBKRlVMUIYAQ4ARFrMBhgBDoGQQYIRVMqpigjIEGAKMsJgNMAQYAiWDACOsklEVE5QhwBBghMVsgCHAECgZBBhhlYyqmKAMAYYAIyxmAwwBhkDJIMAIq2RUxQRlCDAEGGExG2AIMARKBgFGWCWjKiYoQ4AhwAiL2QBDgCFQMggwwioZVTFBGQIMAUZYzAYYAgyBkkGAEVbJqIoJyhBgCDDCYjbAEGAIlAwCjLBKRlVMUIYAQ4ARFrMBhgBDoGQQYIRVMqpigjIEGAKMsJgNMAQYAiWDACOsklEVE5QhwBBghMVsgCHAECgZBBhhlYyqmKAMAYYAIyxmAwwBhkDJIMAIq2RUxQRlCDAEGGExG2AIMARKBgFGWCWjKiYoQ4AhwAiL2QBDgCFQMggwwioZVTFBGQIMAUZYzAYYAgyBkkGAEVbJqIoJyhBgCDDCYjbAEGAIlAwCjLBKRlVMUIYAQ4ARFrMBhgBDoGQQYIRVMqpigjIEGAKMsJgNMAQYAiWDACOsklEVE5QhwBBghMVsgCHAECgZBBhhlYyqmKAMAYYAIyxmAwwBhkDJIMAIq2RUxQRlCDAEGGExG2AIMARKBgFGWCWjKiYoQ4AhwAiL2QBDgCFQMggwwioZVTFBGQIMAUZYzAYYAgyBkkGAEVbJqIoJyhBgCDDCYjbAEGAIlAwCjLBKRlVMUIYAQ4ARFrMBhgBDoGQQYIRVMqpigjIEGAKMsJgNMAQYAiWDACOsklEVE5QhwBBghMVsgCHAECgZBBhhlYyqmKAMAYYAIyxmAwwBhkDJIMAIq2RUxQRlCDAEGGExG2AIMARKBgFGWCWjKiYoQ4AhwAiL2QBDgCFQMggwwioZVTFBGQIMAUZYzAYYAgyBkkGAEVbJqIoJyhBgCDDCYjbAEGAIlAwCjLBKRlVMUIYAQ4ARFrMBhgBDoGQQYIRVMqpigjIEGAKMsJgNMAQYAiWDACOsklEVE5QhwBBghMVsgCHAECgZBBhhlYyqmKAMAYYAIyxmAwwBhkDJIMAIq2RUxQRlCDAEGGExG2AIMARKBgFGWCWjKiYoQ4AhwAiL2QBDgCFQMggwwioZVTFBGQIMAUZYzAYYAgyBkkGAEVbJqIoJyhBgCDDCYjbAEGAIlAwCjLBKRlVMUIYAQ4ARFrMBhgBDoGQQYIRVMqpigjIEGAKMsJgNMAQYAiWDACOsklEVE5QhwBBghMVsgCHAECgZBBhhlYyqmKAMAYYAIyxmAwwBhkDJIMAIq2RUxQRlCDAEGGExG2AIMARKBgFGWCWjKiYoQ4AhwAiL2QBDgCFQMggwwioZVTFBGQIMAUZYzAYYAgyBkkGAEVbJqIoJyhBgCDDCYjbAEGAIlAwCjLBKRlVMUIYAQ4ARFrMBhgBDoGQQYIRVMqr67xT0wcmThV6o8IMaKXauYHt9ykRFNMMwKCrS39cjcu9xM+7513/nnbO76goCjLC6ghr7Trcg8OikSfJ+qjkwHcAlcT+cEOaLXAxx4PICoJ49P3nPsc4befejr3fLxdhJ/isQYIT1X6HG0ruJpyZOVPpUcYPitnMJbxtjONMUREIAuT4Eogz8Xnuua1DV879/64PzEAApvTtkEu8MBBhh7QxU2Tm/FYFF0+r4ZGPN4LLQvkJz7FHF1kZBEDgIQx80WYGCHwKqrl23ThQuDpLfe3HotGk+g5QhQBFghMXsYJci8NRlE5VDAuVIwcheJrrWSMjlJBET8HAAIUag6ybEa3qC2LP3+5+S4NL1h5r1J588J9ilQrKL7bYIMMLaimomTpwoFgoQAwgkjgMRIcR52CWAsR8Q4spB4BpGpVVf/5gDLFzpsHEvunRSqjJvDqhAcDEQa5SebeKTHA+mpQOSOHCCEFLxNPhyfFNG1h5uUbTHjpnxyDeS7tOmTcMDvaaeUgA9iEs4iwuawZbWj737bqoPdvwXI7DbEtb++/eriMelpKbxoQ0AYhginuexIMSQrrea+Xy++YMPPnC7Qzd1dXVyIpEoKzpOGhGuPJ5MlDu2XclzuCrw/TghSAkgQChENuY4HXMoK3B8CyDUxPEo44VhNjTN3IsvvpjbWQTWp8+AhCgWU6YZ4rZ7tiFn24CQGophrLWx8V2jO7DYWed45tJJqV4FfeC+Ij/FbW0dFxCX5zBA6NqAOAw2CoGXVEBYXqdj+a9edc3v/6ZWrZ02bVr4VZmeuuwyZU9s9It71uh0Qq3zAyR5SFrV4FovNvnqshPuvJPq4P+XA02bNo3+0Bzf1vJ89Pn+r8r/RYR11FGDLmhuboonEklJiyuK63oCh4CTFAkUSVk6d+4rf9uVFnBwv377KpI6DCHSjwSAEcchVZbB8VyEAAJV095ydO+FJUte2bQjco0ZM0aywnAPEqLDQs8fxPFcTTKdqrItuxJjnJJlWXYchyOEYEIIQgiFGCMfYy7AGJsIQca27EZZlj8nELzLcdwqLgw/njNnjr4jcn39uwcddFDMImQgCtBQRZFlQRChubmFlJdXhlndyBIfz1n/2ZrPAGC3DJ0WTZskx5tyR5cFwcWCaR0r+oFsZw3gKWHxbWQVSCJwWryB8NofvVj6sb6zH/7H1jBccemFh+8tw4XgNv/YymUSEigAYszxU6kVeVG95eDfzHz1/4ck/cSJE3vYtt2bk9SEZVpYVmSCRS7kgQPDMECSZCAkRPS36RjAAQeKLBDbCcB1XcLzHCCECfE8FIZuSO07yhEhgYQoIEEYktB1GziO+9e8efN2G881EvKIIw5/kOO4Os/zON93BVmREcYIB36AevSofhch7nfPP//Sy935EG7rXIcdNqSSE8Lj1Jg6BSH0A47jkO/7gDFGmqahfD6/EWN0l4PIH1a+9lpjV2QaPnx4uaqqBxuG9X0k8gfGtPgAwzAPCoJA9jwPC4JAr0cVCxzHASEk+mlTKIp+2g9FkcD3fbempqbV0PWlgeu9FYb+R7aN3p4//7l1XZHv69857LDDKgPCn4o5/MtYPJbwPT9EGBHX8eyi5f9TLxhXb/zi/ZW7I2HNnTxB3YMXBlRycAkUcqOtXF5WEQ/gAWCBBz0MgIvHAGnxjAn4cUcte+K5VM93v+5ZUUyeuvFG8SCj6cdpM3uLk/1yL3AMkIkKLhZB3XNvL6sq0z8t8L/5bw8NjzvuuLjrBkNVVT6OE4UDY7GE6gc+cRwnIAhCSRABBSHySIgwAeBEAUEQgG05IMsyCcMgJICI57ohx3MQ+EEQkoASGLXwMAgD4nmu43n+y4HnPP/qq6/Sl+FucURP3oQJY0/KFvK/tkyzgsc8R8DHYRg9ob4WizmJWHIRAJ4+d+7crb71uvFO8JFH1g2TJO5CXhDGhmEo8jxPCQHCMKRg2wVD/yvmhHsE8NbU19d3avWI5qZ0Xe9DCBrih2R8PKYN1HU9jhASKTlRkpIkKXpD0X/TH0pelmWBKIrgeR5QedqJKyJSDiAIAtA0jcoY8pgrxuPxf7a25p6VJP4113U/fuWVVzI7gtEhhxxS5YZwZllZ+XUihxOEkBAIIMzxfnOmuMayrMs/Xbvmjd2NsJ4757j4XoAHVqvoEt7QR9uZHBdDAoRBAEXPARxXIRQkcHlxI6+U/95Q1D87Jv7kiIce8raG13NXnhPfxwnOTpiZaUKhKc05DjheSMkO+FQV6MnyP36k4SkTpj1k7gjeu/t3x48f35MgfoqqSBfnC7kUtVP6QqV2SF+w9MCAwKcvA4QhMpZtBIb0e9ELGLW9mIPN63AYYxsh/JTr+bPrF7y0ZnfBJCKsE088sZduFG52Pe8Y27QSPM8rfuDSEMj1vcBKJlNNnCD9EQP8ft68ec07S/hhw8bs67vO2ZIs/QwwqqKEoOs6VFVVUTCJ69hvFgzzRgGHy5ctW1bsjBzHHntsUlLVw23LGa8qyvEY497FYhFTBVMiUhUFCsUicJS0ZBlcxwFRksCjRMZxwHMcBGEIJAzB9TwQBYG6W0BfYQgR8F0vIrsgaLOM6uqa1k2bNr4siuo8v2AtGjxicMPWvIaO3MPBBx9cHSD+rHQ6fa3Ec3FKjEACjDnJb8nq75imednuRlgRWcnKwHLwp6JCdrzoujwyXcB+GIWBYUyCPAkBkmWNrhT/Uyvh7jnmnj98a1X73GmT1ZpmY2IN8n/tNXy5l+B5QOgLDXGgVO3pFbX47L/72Wknz55jdQTXUv3MqFGj+hDCXy0r4qRCMUdNFhzHAUVRwLFsUFU1eunS/6Yk9tXj60lrAm0p0fbfXyEsmvaYAyicvvCVV/6+u2C1Rf4JEyYc43rejZnWpr6aFqOkJfm+H9IFsjAMTVVLvK8X9TuWLFn04mbhuzWhRxPfxMcnEIwuTyWTh+eLhQhJCjr1fhBCawPff8BxjCdWrFjRKY9l1KhRZRgLg0MS/jQWi43VdT1Jz0mJShRl8MIAiB+AqMgQU1TQLRNEjgdeEokqyR4WeMs17ZBwSOYRlnwSYqNQjIjKdszorUYNJhaLgWN7kWfGcQIlMNuyrLeBwF88Lpy7eP78z7uSBD344AHVhHMnpVLpa6iHFYZhgBHhAAl+a1Z/Rzecyz77ePVyAPiPBPV3ZWRLzzknrsjW4BSPLgiN3HA/k1FTDgGV58FFIeRtG5SyJHjJZEM+UfbU5453349+98e125P3qYkTubSG+++piJdq4I+3sq0aCnxQ42mAWMWb6zz/N/Oq95jX1RfD9q6/u/x91KhRhwuSdiMJ/eOo/dH3F31OisVi5OnTiIB6WFu8p/YH9iupjHaPK/K+ENpCWFtSHhxPMIf+YpjuHcvrF+xeHla7IoYcM+QyDuGzgsDvHQSBGovFeMehSbnQE0S5IMnSk7bp31NREadvwmDOnO6rjxkwYPBRyWRqiiSKJ+m6rohylBuKlKFpWks+l/2LbYd3rFq1eH1nHvohY8ZUgm4fnS5LnWma5rGmaapUufTcMk3k+zR2RxHpSJLU0NLS8rEsSQ2u7+YQcBZCKC+IoklIEPKcoHiem+AFMeE6dloQhJpUPLYfgaAyDADlcrkt+S1KhNRgaEjJ8fynhlG8L1PMv/DOm29+3FnD79+/fw/bDyclk6lfCRhpmwkLAxLC1pyxxjCMSz9du2bF7kBYcydPVntD/qiEiC4JjOIIxyyKoutDwiNAghBskYdAFoGPJxpaOOEv62OxByfMfOyjjmKy6IILYoGv948jOCEp8kdyhMSwpHye9chfc7H0y8feckuX8podvf7u8LlRo8YdizC+hRDS37ZNoIEcRjxwPAIOC2DZBgicCKLIg+PQ6Jq+x3D0gm3/jQj1B0IIqJdLD9QWSrYfIcIhIPK47YR3rlzy2ru7w31HYn5VkGHDhu3led4loij+2LbtaowxL4gy15bP4UNJEv+pW9ZDTuD+rWd5+aY5c+ZQNHZ42XTgwLo+PI+mJhPJczzPS1F3lhIWdWd5nndJGL5kGPn7Vq5cuaAzwNHkOsbCsFgifkGmpXWQoiq0piryrOgPvS8lFgc/CDOe572XyWaWqJK2MvS8tYTYmfLyct2yrKBYLCJrn31Qcv16igVvC4IUlxIpCJzeoR8coSjiYM8NDpEkqVeIgK4ogl40IhJszynwAvcFAHnEKuafWLZs2ZeduQ9KWG4IkxKJ5LU8AhoSeps9rM2E5Vz66dq3qIe1w7rojFxf/+xTEyeKfWu4IbyRu1ghaKTdmlUEJwBNEqPcnxF64AsKCOUV2aIgPrZRUu4dPv2hT7tyzUcvvTTVgzjVsigpGd8pBA5qOvm++76xOkubq2OcHjvt/j9nu3Kd3e07tAZt8eJlP0mny2/JF/K96QudhoQcJ4Rh6BcJQY1+4DqyoISOaxFZUjlAIQKCMf2NgCObfyNAdHEwoMvfNNNBQkJotoEEgR/4QegRQp73XfLUihX1n+wuOHyjDmvIkCHDBUG4nOf5ozzP01wv4GhuhoY4lmX5ZZUVy2zLmtnq2YtXv/pqYUcfkiFDhlTKcvxUHuMLDdPcj3o9lKgcz4VEIhH4nv9BPp+/x1f4p1fX17d0FDias+JEsU7ghAs8zxuKEBJoPox6PPSg9wQcb+fz+XpZVhblC4XFEpbWSVLYWl9fT0u/tnfgkSNHKpZlJRQlUWtYxmGaFhuLOHys67px3wu2hLP0YaWrMISQTzgE/2MU8w+tWLGCPkAdIhhKWB7gsxPx+DWYkDghhBIW9bBItmCuKRSs7zwkXDRtGp/4eNXwqqR4FefqQ4yWLJ+WFMCWH3mdWc8CSKQAEulsBoRH/VT1A0dOv+uf2wN5R/7+wtSp6QrOGSYL5FAz8OblSHp1qa8gUrvGGJ8jybEbTNNM0cWglpYWSKVSBsdzL5Eg+JPvhxs9z6cH4Xk+esZpiQNPCPLb3CygT4EfrSH+XymjjzHBPiIe8gn2fcpe2T333JM6JrtNucw3COvAH/6wPAF4YiyR+Lnnun1oWEgJxDTt6CGXNdV2POf3geU/VCi0fLB69eqtruh00NDQ4GOG16mSfIUoCmPCMESFQiEK1YKA5pfETbphPGEU879/5513OhNK4dGjRw8KQrgQY3yi67pi+0qKF5JoxU9RlEI+l3vG9/3nMPFXLlu2bGMHZf7Gx/r16yfgeLw8Jcf6WrYzobwsfXJASE1ra2vkYUU5LdwWdhpG8QOM+SsUAS9/9dVX8x25Zr9+/WoIJ5wdi1HCCmP0VYoRfTFyJFt02glrWUcJsCPX7MxnCABaed7Ew/cU8DV+vvVHYOu8TAvmTBt4wIAFEUxJAL6yuiUnx/7WLMXvOvrWuz/ozDU6+9lXL7ywvJdvDo0TZ1oQuHtwCfWFrKze98EnrW+cvBs9gJ29rxEjRtSGIbk0nS67KJ/PK5YdvdjpaTK6Ydwd+tLvli598b/Cm9waNlutdD/88IF9Egn5CkGSTnJsp4I+cAi1PXg+oS4o96XIS/cWnMKfepWXN3SVgevqRvcWRTyF43nqBSXakuBi5GFJkmDmstkFjuPNrK4uf7MzxWtjxozpZdvu5HgicbFlWSl6vs3hJSBeoP9udlzvmTAMn/DMwturV6/ujmVwVFdXJ7kg9uEQmSjJ0mmEwL40VxYlMmmmoe2+XNMw/hcC/xZBENZ2pDSDelgh5s/WtNi1KAxiBAKPIwgD5kiu6L5TKFo//y5DwoXnHHdALRYuEHT9HMWzY8QygKcpEVq9zolAwRUqe7RmBPEvjUrZA0NnPPB+Zx/Uznz+5csuK6s1sqN7hN6FdrZhUODZkO7Z081J8oNfiLH7j7njvg87c77d6bNjxow5yHHca+LxxCmFQoHneB5s2w5TqfR6yzbuKEulHujq87g73ee2ZNkqYfXp00cqr+7VP6EqN4QYDaMFpdFKwuYkMg2rAj9Y7vverMaNibkffDCnSy0yRw899tRkPHFtPp/vS8Mm+kNI5H2GjuP83dCNB0WRe7qzq4IjR475MWC4ShKlI2gYGBWBBmF0flEUc4V84XE7dGe/vXw5zSV1KCzruDKn4QEDFu4LInd6WTo9xTTNaroiKUtilOinDjrGOJ8v5i9OxmIvvfbaa63bO3e/fkNqCOedo2mxqwWMYkHoBSggwAkiaslZb+u6/Z0R1qJJx6cqePQz2fN+IZp2tWK7IOMQdM8AIuGozkqu7GG0huITjUJy9jF3PbhTw0CaszpCIaOSVvFmrtByCLJ1EHkO7ABDrGfvxpwQm/aFGDw54vaHOuTdbk83u/rvY8aMGeY43nWSJNT5vo9o6oQXxUCV1H84tnnTggUL5uxqmXbl9bbZS9ivX7+kFi87T4trF7iuuw8lK5rgo8v31AuKxWJ60dAfwT7+nePkG1esWNGp2pfhw0cNAQSXK4p6nG3bUaI6Wo7FAIqsfOE49iOGUXxg9erVHc5bUeCGDx9eHYZwfVl5+TnNzc0K/X80xKSERQtPdcP8k+/5D7+xdNGb3U9WbaobOHCgwsmJ/QPfOV1RtckAkKAhISUsCKKqfRAEvKypsekG27aXbq8nsn//uh4Bss/VtNhVAkbxIPR8uoaDeQFl8vYawzQu/fiDvy/dWfezLYOkY2Li6ypO6CnBLaC7fbxMFgTHA0Ek4AohhKoMvhxrzPPyE3Z57SMDbr23M2F9l56DxVf8/JB4rvnmBNHHeq0NWOUIiLwAuawBYqwCYr32fbtRVC///ow767t0ge/4S2PHjj+1rKzsxqamhv0Ny4zKGAJCbA7BPILIzAXzFtDUwH/tsU3CmjhxIvevDc3fS1HC8twzw5AWvccgn8nSBN9mb0tca5j2A6HP/7G+fm6HiWXQoEFVvKxenk6XTdHzhRT13iIvRJZB0xSrsaHpSc+zHli1atVbnXkIKVHIsjy2sqrHtNbW1oOj+krcFspuJtyFjm0/KAv4+Q4m1rus+MGDB8eBl4+QFeVi13WP9z0X0RxWXFXaSF8QDNf1flsseo+vWlXf8G0XooRFOPdcVdWu5hFQD8vHIcGYF1G24LytG8bPP/5g9S7PYS0556R9qnl0m2gWJwpZGyQSAhIx2MSGUBWAxBOGo6QezQjqrAFbmbrQZXC/5YvzLp3Uu9p2fqWauTMEqyAFrgEKJwBPeAhDCRKVvSCrxWb/A9l3jbnzMVoXV1LHsGHDrigvL782k8mkeVGIbEmNxQqGbjyuiOK9L7/88nbr2Urqhr8m7LdOa6DJZEGOHVtTW/MLx7GGZjIZnIzFo5IASgDU0/JDeMPz/V/h0F3eERKoq6uLhQgdp2jxK2zLPoyDtjKDaNUOADzPWeKH/p3FXO6Vd9/t3ASCYcOG9RRl5dcY4TNM0xTp+WjlLiXD2traTC6Xvcf2nD+sqN8ly7Ro8OARNT5yxsuKNl2RxIRpmrRTK7rPIOqP5P7mEXTHiiULV30bMVPCCrH3M01Tr+IRaCHxfRwAxoJACeudom5d8vEHb1LC2mWFoy9dfFqit+EfX6Fwd/iZ5mrJ8gEHAeihDSYEoNT0AFJe+VwjEm7+4W0P0/vbZcfKy845otI2buKN3KjAKgBHi4I9ABJyEPIq8Hv0+rJYnrpyHU7/7avDAc844wyteV1zZdFzJMuysCAQpOsuKIoaGMQufLh6Na3x6haMaQRj26RSScpyaNsBfZbotXhetADk3Jo19d+YOjFmzBhaNPxrSZIu9DxPKBp65GG5vt8oi9LsjG0/1tX+2l2mnB280HbHywwYMLxaieHjtZh2ebFY3B+15ZgiwqIekRJL2cWCfr+tW/cuX75wuzU1Rx01tF8soc4GjIfQJDRtEqeeEAQhXe1oMo3ifYVC7vE33nij02+/kSNHHq3F4g/rurE/cHxEhPSgrQqmaS2yLHNGMdvy6vZCsB3EdMvXDzroILGypqYfL8h3/ruW7If0D6HngiSKUW9XCOST1lzxdgiUOatXb3vFkBIW8N7PFEW9mgOi0vQ9pmsfvIDyuv+ebtgXffhez2UAu275eelZJ/Xtwwu3+HrmOM8ogEBXBak+EYBaXQ1OLPX2OsC/zZHkS7u6lICuWr5z/mnHV7jWzV6h+XtBsQDVahws2wFXUAHSaQhSqQfWEfHWo+56aEtN3BkTJx6lF8wzrTDoazkeBoyIrGqkJZttdB3n5cAuPtYdtnPAAYPjsZh3tKbETg2Qv18ilQLDsEJJki2jWHhTLxh/OOCAvT/8evK8bsyYXmIQ3Kxp2uktLS1YUmgLmR+q8dhnju3c6lrynGXLnu9Uy1p32fquOs92CYsKMmTIkIO0ROJsWZF/lstkkvF4HPL5LH1iQJRjIPLSZ8V87iZdV/66evXcba64DRo0aC9ZjZ2vKsrFumVqbZ4aimqjZEH0Pdd7ynXdu5Z2Ib9EPTdeUn4qS9J0vVhMmo4bERV9iKLaK0Iesxxz1orFi9/bVeDS69CEea/ePU8xTf0m17JVWWpz40M/AEGUrADhJ3JG7rY130LQ9KURYneyoshXckDoKmHAEcRhXgDdDP+hm/aF773dY+muIqynLpgY6xug42tCMosUs5VmMQeY9gfSBCQvgVBR3bA+5G8r1tT8aei0mR1OFXSnXhb9YnJFD70wScy33pwIPdHP5yMvPhcQENJlEK/q+elGJF9x0Mx7nm2/7lknndTXC8glnCSdWjCdWAAEioYJNT1rYcP6dX8NkPCr5Qvn0S6PHfKyjjhi8AEcB6eWV1RcxPO4rGjSImOBRgJZEoSPcCiYVV9f3/T16wwfPvoQScK3SJI0LpPJACfwtMLdF2Rppe+Ftyx4+YWXuhPD3fFcHSKsfhMmqEqxOEhVlV9KgjCiubkR0fYW2n6imzZUVlaHuZbMi6IqzJj/0kuLt3ajNCfWnGk+QZaU6zmOO6RoWG1tK22Kgngs8VJTU8NDcVWq72h90levM3jw4D1TZRVXqIoyNZPJ0Eao9rwV9OjRw9iwYf2tROAeXbZgQZfrrbqiQIpd3LJ+WFXR488bN2yo4bk2ggY64APzoe35yxzPvdK3i6u3VdPWv66uB/bIZFmWrsQk1Gi5AEcQII6xHpBoAAAgAElEQVQH3Qo/1A176nt9eiyFXVBfRCutj2/+rE8F719DMk2TSDYLXOjR9iMIJRk8TgO/ovqlfLL2xsNvvoPmIL+zY/nl5x5WnWu9Ry3kBvGBFXncoSxDxvChts+BsIlXZ37Ix2ecPH16lEO88MwzyxsbmycBL/zS8MPqgqGDosUgBASKpv1r08aN10jIe76zC0xfB2DIwKGjBEn8haRKI2hrDXBtvaeapn25ft2Xv4XAe3xrtjBs2IiR5eWp2wqFwmGe50T6D3zkEA6/IgrSHQvmPf/1hDsaM2ZM3LKQqiiEFwQh9DzPsyyr2JH0zXemuG+5cIcIi36/rm5sD170fxqLaZe4rtubKt+iyWNOjMBWFDmbac3cx/Mwo77+m/H30UcffZgoiZeJsnSKoRuCLKlA3yyxWAJEgV+bLxbvERF5siPL/Fu7n2OPHXOkpsmzbMcZSD0YGrLSgkX6VrUs6w1JFGcahewrnZ3y0B1KO/roEftV9Kh43DbMgcViPgoJaV8dDZ98gj8PEbkWXOvlpUuXbrXgjxIWcsMpmixfCRCqiD5CCEUermGRjyzHOv/t3ruGsF66eIy0r50YllLR75zmhv2wXoQ4HcHjOuDxEqCK6kYzXT1zbQCPTpj50HfiXbXrjPY17g2Fs5XmTbfIxEkIHIDlekAkFTxeAbnPASvWuHDphDvupivGMHnyZEFvbB3mEXJVzjCHAseB5XggqwokErEwp+v36rb+6zc7UIqyLbsZOHBgmSiqp8e02G+8wE9arhWV2wiCFJqmsejfLXA3LF44n7ZZfeMYO3782TFVvTWTyVRvGSWDBJuXpb+GjjcjmVQ/bGjQyzzQ90gl0r08198bI6gWREGzbVfhMAoFUXA8x80hXvgCAu9zjoMveJ7fNHfutiOj7ngGuuscHSYs6iFtamk5WFO0M2louGlTY5yuFjpm2+woWm3r+d4bDa0tv/77qFHz4SujbUeOHKnlDevysrL0+a5l17bPnKKJRk6UCkFIHigUjcdXLnmty9XPI0eOOV7V1Ptsy6ixHBuA0NIBCXhRosntP2bz+VkrFr9Ku867ue5q+6qomzChQiJ4Gs9xU13LxBghsE0DaA4Cc1K2aJqzA8f4w7bydnV1dT38EJ8vcvwvESZqlP2ihMwJYLp4raGbU/ffp2rxrigYXHTBxNjePDqLKxZvCwuFGNg2SJiPKvl9VQGvvPLVJi326xeUPZfvDlMTFk857aA9HOspwSj0xU4RBBJAwPFgiCoIPfdY38jJFx0x48Hn26eUHj/6+N4uci8FLFzkBSFHfAJu4AMvYpAV8a3QDk9/+eXnu7wSN3To0B+4rn9+Mpk83/P96Nx0RDTHcUXXdae7evDoypX1tMH/G0fdsGOn9aiq+mVra6sa1fTRukJJKvKC8CcSkCctz0KO4RxVUVk+3vOCfXgexwhBPEK00yakY2gIQpxv26Yny6pHwqAhCIMVRaM4L66qa3RdX7e7e14dJiyKHh0pnLftY3tUVl+DMD9w44b1WJXEqIOazoiqqKgICrr+v0YhvGDFii1D6/BRdXXDNC32awAYFLhe+7I+CKJIsCC+ZHv+XeUx+bUdeeCGDh05WYtLM42iHqNd6n5AhywSiCdTYOjmbB/zsxd30wTQ7VPUf36iz5gx0n6CeposizOL2VwqCB0IHA8UTQXPJRbB8CQGbuZrr83bKmFTwgoCNFXghSu+TlhFF691HOv8/faoXLIj+HX0nhZfPLGyNwpv5PLFC/1CEUTa0khXPYMAPEnSub17T1/Lk3uPvfWJ7RbEdvSaO/I5Ot2h0miYWYnCc1GhlSNWAQgdyyzHQezRy2zF4rQPLeOhkx+aExWSTpgwQcUY/0SUtKuaM60HcISPujtC4tC5bIVsc+68hoYvn+tK8p2W3VRUVEwAgCvopIVsPge8KEcTE2Ka9llLJnORmc2+trVz0+GTLZns/cl4YpJpmrh94GR5RYXJcdyaMAybTNPaE2O0j+M4qS1RBsZbhk9Sr5wSHc3t0oLqzYXUXnl5+frmluZVHOL/wnGk/sUXd9/Wnk4RFlXoyJEj97D88KRELHGhYRp96KpXPBaDbC7XlpvhuPWOa19PXPfplStXFgYNG7ZX4Po3VJSX/dR1XcU2zLZBY7YNiWRybb5g3B148MyyZV3PLVHvL5vVr1Zj4vX5bE7iOASeD6DRSZSiREe//raYa6KJzO9sg4Kho8cPTyXjD2WbWvYRJQy0Up0W/sW0tOf63st6Ub/+zTeXvrPVN+u3EJblcmt125m6/55lu8TDev2Xp+63n+s9GLZmh1LCkhCKRpjImgpidY8N6zF35ffv+cuTu9Nc9Q1XTj2bNG6aDrnmcpnYEQHpSAJcWUPCsoqHPrbJTWPvfmSLV3PssccepiixK3TDPJWEtB3NBzpthY4XVnn5/nzRnF5f/3KnV7HHjh1L57BfmEgkriwUCqIgieD6IQBGLiHkFcuyrl65ZMlWX1pDhoyplOXwSYTQ8LbVdRIRDi8IUFVVbTU1NdKeX4ESFT2ihntah0hIRFJRCdJmsqLpnPaBf+3F4Mlk0uV5boUfkqc9O3hp4MDDP9sdPOSvPw+dJixKDsWi09cjwZmKIp9n5HNJ27ahorIS8vk8xFNJOkhsoWEa14oI/TMAbnyqLHVL4Ps92yq9wyivpKmqaZrGAwD8E6+88gKdt9PlUO2ocePSaSxf7/rGxYHn87S9JyQc+H4I6fIKMHTrxlwGZnzbCuaOvMU78t0hw4cfUllZ/XDThk0/lBUeiBcALfzzPQjVuLYyW8hetnTRIjqX/ZuhQF1dDxJwF3A8dznCRPtqSGi53MdFy556wF7lr+8KD2vFFWcM2DtwH/OaWg4M88Wocp/meHglBk488WFLMnXJIbc9/GpHMNlVn3ln6ulD4mbhMVnP7yODHSXfHU4FoboG8qr27KcgXDVu1sNbqvAnTpwYa2houqCisvq6QqEYpwW/PmmrPUzFkv8wTffSV155rtP3OHbs2AGKovwqn89PiIY+ei5wggRaPLZx46ZN9xKMH129ZMlWN1YZMmT4IWVlib/mcrkDae0VfeaiSbmatmV0N+0UoaVG1JOihFReXk5JKtg8yI+jA/7aB03Sz1IZ2omMfofn+TAWj//Ltu3fIxLMeeGFF3ZqG1VX9N9pwqIX6ddvghpLOYPj8fglxHPHU5a2oi2n2jZoEAQhmyvmpyOANaIgTUUcHscjuubddmCMQ57Dc7LZwiOyzL9RX1+/Q7vMRPUpBN8mivi0Yr4QDS5zPQKKokEskYTmltZfqSLM7EwDdVfA/LbvjB174l52aN8tAJ5gOzoIiAPXp6OZE6Cb5nsEowuXvf7aku0QFg0Jlf8kLLRWt62p76x8/fUdXW7vyD0vv+qMUfs6zu/dhuZaMHSQ6RRROpMpVQZcba8FXxD5qv633f12R861qz6z/ILT++wjcn8JNn3ZL9Bb6Rgo8JEEnpYAvnfv19fY7s9PvPuP/+Hdjh4xeizi+esRcEfSnKjjm5CMxwGDoEMYXvvivLl3d0b+448/PuV53snpdPqWTZs2ldMwkHpBdNcIAHjD972r862tb22tWJqGg9lsYYyiyA9YlkW9tCiaoT80D0afP/pvTdOI53lmEARZRVGasrn8egwoK8kiH4ZhmSxJNZ7v0yEDZYqipChpUTKjBc2UBCnZbSaxL4uFwkxVlZ9++umnt5pP68y9d+dnu0RYVIDBI0bUakgcL4r8lY5j70sJqz02jsfjhJfEf2Sy2X+JgjAMY6yFnh95VpTQQhK+HXjBbE2T582d2/GWnm3d+IgR4/dLpRL3GFZ+JM2o6HoBeIFOFQ2hqkcNGJZz2YvPfu8ugP/c4647gdzeuahLz8lklmfZp0syB6HrR0l3DkvgBf6HJAwvePXVl7fa30ZzWJs9rK0SluHY5695o56Wk+xQfdD27oH+/c1fTDpxT19/yGtoKce2BSjwgAhClBMKq2ofbUmX/WbgtDs7HS515Npd/cyrF55Z3juw/8K1NB4ruDooAg9eKICvxsGrqV7zoQNTx979GN3EY8sxYcKEvQ3DmhLTkpcblim4nhF5I8lYmZ/JtD6WSGrXPf/88x2ebjpu3LiDeZ7/eRiG59H8Ea2hoqFdLJEyHdv5k6UXfrVkyZKt7pdQV1eXEgTp3FQqdWM2m41TIdvDQrqvAK2LNGliC+M1BGA+AVirSnLGtt2MKCKD/inEOIECSIqKmPS8oJaE4U8VWT7EdV2J3hcd60QPSlh0AY3n+fd105weU6Tnn3322e8slfJ1nXeZsGgVd1VVz4MQBz/VFHWK53vJ9sboaOKmrpN/u78ez/MinSDaXsQpidJGz3Pvy1nG/761bFmXV1u+eiNDR43qW5WufNB29MH5LB1TTIAAncwgQ3llldPU1HLJa/PnPtRVg++O7x111Lg0lrzpOCTnAvJB4oQoJBAFFQISfJjP5S946603tk1YhLuAw9xWCCtYa5rBlLdXLaLe2S4grLNO28PT73U3NScFx4kIi9NUsLUkMSqqZjXzsduPvvXunbZRSVd08coVZ2j76PafNLP4I7ByENJwygUQy6vBran+56dYPPfY6Y/8h3c7ceJBomH0PkmR49ObW1t6xuIy0BHYmpygBPH3xkzrpdvyiLcm44QJE8b/u/xnmh8E/Sg50Bc3zeUSDq01CsasmuqK/9lWSE9fWLKsXqdp2vnFYpFr336OkktIEM1oNfAct8T3/bk8CusXbKfWsF+/fqogaxO0uDZGxNzYIAgq2/t5qVMRhZqqGiKEnsvrhdkoCFZ0ZAxSV3TT2e90mbDohej0wyBARyAOLpdEaaTneXyUp9qc9Guf8BDlAHyfup1OIV/8MwC6h+PCd7sLhLqR4w6uLks/4rjGAEpYNPjEHO1NxNBzj72MjRs3XDJ/3vOP7kierLPAfv3z9C2JJe0OI5//Gc1hUcKiISElrBDBWhIEU1977RVKWN/I5UUeVhth/eLrq4SWSwnLmfL2qiXUw+pyHrCj97fql2ed2cvR73I3NCUFzwUB0/5BAlxVbehU9br9I1GdNeE7qm7f1j3QjVxrN5lPivmW4zmnACJG4NkEUKIM/Nrqzz4iwnmjZ/1+0de/P378+B96LlzP89x406GbjiDgkQTJZLLYUmj97aL586d3BDcaDgLgSaIo/Saby8bps0CfjVgsFrq+/1yhmL/9jaVLt5q/pOc/euTIvZOSPEMQxB/pus61z1jDGBOE+c/swHuGx/BM6Lr0mepQeoXmojc25w5LqtJJQRCcBwhVUK+Nhps0PKTORzqdbnUdZ7ZlBX9cuPClLzpyrzv7MztEWHRE28CBA2tVNTkaEJyPMT6CxtP0DdA+iC+Ksz0virH9IHjVd51783lxwbvvzu+2rdWph1WZrnjYsooDPccF09SB42XaSAo1PXvpjc3Nl7xyxA8e/2pt2M4GdmuERThpumOa56maGIWENOkuiRrkCvm1iiyf/20hIS1rEAXxCgKBSj3I9p1OLCdcW9SdKe+9vYTmsHb68cZlZ5yyN7Hvtr7cVCEFdBHFhoBWuCfKwKnaY8YXSnz6qGkzaFvJbnPQAtK+kvE3rrVxNO8Wge60E3oYQi0JQa/af36CxMkjZjzyDe+Wruph4M9DmLuyYGTj1IZd04VUupzorjHXLhZ/tnz58u3e67hx476nKNrPTdM8z/U8jj4jIQIaeuX1QvFugUOzv23vyrq6ul7pdNnUfL44IJlM1GCM45u9tIIfBi+4tj8nHpff72yOlnYtLFnyxsGiKFwoK9JZ+Xw+mkBAn1+aX6OE6vne8xi4O+fNm7tL7Gt7RrOjhAV0ogNC8j68yJ2eTCQm67peRWPg9lUImtArKysDy7Y+8Rz3PoSC/128eHG37IjcfnNHjxixX1Wq4l7Pt0Y0NzaBqsrRKiENCdPlFW42k78krnGP7IpVtG0B3q+urkLG3HQRuEmCiCLCohtdIhAgnkyszbS2nr90af02Q8LNhPULAoH2VcLSLX8txtyUFUsW7BKDWnH56cftHdgP2Bsaa2TfjzysoutTDwsKyfL/aVBjvx1+8727xdu4XReLJv+0Yh8FP+tt+GKwGJh0GwYggQiBFoegpvrdT3jugpHTH//GHKmoXKalMDqRTFxfMHMDog0fQrrZrgJEQJ9bpnG+bRiLt9eqc9xxxx0HgK/HHBcNlKRdATQcVBV1TT6TveX11xd+69A9Wnht2/Y+ihKvtiyTbqSbkCRe8X3fCnn+HSObfb+ro8ppbaXrhkNjce2Wf48LP4x6Vu0bCNNV//LysrXZfO6OZCz2l92hGn6HCYsaBZ1QWlVVO1iLxy8Pg2Bc5PIGbSsX7UusiMP3Wab18KpVy+lqTLeGLv2PPnqP3jW9phcKmZ/QpmLHsUCSY1HhaGV1D2hpzV5RlpDunjOna5NRt8f6Hfn7gLq6XnE1Pit03Il+YIMiSFEOS1OToJvGeyQML1q8eOFW+zCjwlEPTRUl4ZcEQuWrhGXawVrb8Sa/vWrxVr/bEdk685mll5w6dB9i3e83Zg6gIWHo2hDyPKB0BYh77T3v70X7mtGzfr/VerLOXKc7P7tw6sQDDlG1vxU//6Qv5+kg0D5TJIOjxAD1ql36ERF+Pnr6Q1vdLJQu6DiWcWk8rVxAwyUUcOC6PsTKEma+mLvTIGj6mm+p76urmxhDKHNJTW3ttRs3btSo96Il4tSDsYIg+DMg7875L87fqSOjt4clTe2IsvorRZYvpFX09JmlxFpRUUGHaWZzhfy9vms/1N2Oxvbk2trfu4Ww6IkHDBhQjTjpPEmSfkP3wqI7IdNYmJKXYRiuHwSTBQGe3hm9fLQ/K5Yo+3UyqV6Ubc1EOSxa1kBzWFEdlmndqOfE6StWfHc7Ah959LHfU1Xxfi6EY0yrADIvAi0c9FwSyoq03Lbdy1977eWtzo2KWnN8OF8SxSvbCStSJqYtPuFHLoEpq5Zvney6YhTf9p2FF//kB30C+25ozQ/hHfoAe0A4HkJFA7+88v1Mquqyw2+6u9M1St0t51fP9/4lZw5NmsUncL6llwRtRZMOkUCorIa8pj23SVGvGXHHI1ud804fZkVLnQZg36zreoojbbsuCZoChq0vKxr2aW8vX75Nj/JHP/rRQZ7nX4M5/nRKVjYdLyRJVPebLNO+yTP1J7fVQ7ozMfn6uceNO+44hPF1HIf703CTrjzSTVTi8bjDC/z/Bp5Ly4K+83KV7iSsBBaVc1RJnu66Lh9TtWi77M1bwTuFYn6S7ztPd6WlYXuKo3UqDQ0tV5dVJH9tFPXIw6JlDaoaA1FWQC+avzElMmPZ89/drKBjRo0aImLhfhSSvrSsId+aBcxztA7LM0xzrmXZv/m2SnffhfMlWbri31uHR4Wj9EAcJr7LrW3Nt0557+1Vu8TDev2CU/bYK9BnoYLxY840QaRFip4HnKKCWNtzwyYsX3PwnY/9cXepdH/qxonigevJ2Xsrwh3GhnUJW28FWVHAk+JgqlrAVdc+/L4f3HL8rEe3maYYPnLsCCD21UEQDAOfhoRS1AMoa3JTa77wU72lZatjrqldFgrG8YlE4leGaRxCiTL6nizT/OUyx7JuWDh//sLt2feu+PvIkSMPDAm6QVXVn1Kiat9jAWMcKIqyLNPa/NulS5d+5y+ibiMsOpQsnobz4qo23XEcjkN4y2qDZVlugMiZRiH7zM4gLKrQYcNG/SxdHr+/kMtz0QONBLBtF8oqKsEyrDt5Trr9pZfmfOso4p1lGNFonVzxp6qiznJMs9L1zCgkpE2vQHjTcd0/IMTNXrRo6+NtqYfluuH5iqz8B2HRVSLLgrWGY0x5e9XyXUJYL182sWxfQ79eMb2pxDClwLIgocXAsC0Qq6rNfKLs1o+V4N7xt+0eG5fSGqz9AncGl89MklwTsGtFO/EZvAJ8jxo9J0o3NcvqA9+2KcWRR9b1jpWJkwSErw0cItAcj+3bdFqJLUjyzU6x+PiqVau+QXhUb8lk+heqql60fsMGma7C0U4QjLFl2NafJYDbFyxYsFtUk48bNy7tON4NqXT64mw2y9FVTHrQxTOeF/4u8OjGZ5555oWd9Yx09LzdR1iDB8dTgM8VOWE2DQXp4P9sNhu9TWhIWNQLpxfLU3M/79gmpR2Vf8vnRo4cM6G6pvJ/NqxbXxmGfkRYNOkeEIDq6pqn121ouLlHufLOd5F4p/PdTY/8au+9e1/evKlBoL2EtNK9QEezxNJZ07Gn26b3x1Wrtr4YQQf48difIivyVbSsYfPOQtTwiefhjwoFfcrf/75sq1XynQZyO19YNGmSXCs2nRt3g1+DbpbztF/N86NCRkgkAO+xx6ufIOH6o+545D8KMbtbjo6eb+E5P/nBXoHzZ802D+IdHbjABQcBGHIMhJraL/O8eNnBMx975ts8QrqwFPBobG1V1d3gBHvoRROUlEZHH9ABfwstw7hhzVtvfSNpP378+IE8Fm7VTeMY2uhBc7qmY4OqqV/8e5Pi6Q2Fwp/f28ZIoY7eX3d9jr5U80XjunQqdW1DQ4MYrepv7kEUBOEfuWzrDcuWLXu6u67X1fN0G2H16TMgkSwXzk4n4neaRjFym2k4GPgETNtyLcc7LdOMX1y/vnO763T0xo4YePRhe+/Za7pj6cOjrb2iwYA+CJIM5eWVnxaL+o0W779Y/x1U7f7gBwN7VtVWPGrb1giJ3zxYkBZcRoV/3Kcc5i83zdyibeX36DwszvanaKp25dcJyzC9tUDwlOW7KIdFxw+/P+W4YysCmIEL+iGerQNPlUR7IxMJcNLprF5ROf1fvPrg6GmzMx3V38743IPTJqtHNuhnqc2NM2PEU4htgoAIuDwHlhYDrteeSzZh+eeDbntgu7mZ/oP79+UJf1VVeeUZluWA49lRWUoIOON67iXZpqY5X40e6Px1EuBTEonY7ZlcNuUHQbQAxYlCIIjii8Vi4TdLFy2i193pxb4dxXb06LHXqJp2g2EYMi1FattHU6Je1kembd6wcDfYQqzbCIuGhEqZcG65Js5GhE78b2sdpCOQLdf3WnPWqY6hvPD55x3aBr6jGG/53MBhw3qmE4kLVUG6hi7H0oOu6siyGvUTWpY7G4TgrpeffXaXt40MGDz4yEQi/YTv2PtRV5saghLtbh2AbjsLMAdXrVi8eJsPDZ3pzotksiiKV/EYonlYbRuOA7GdYK3nez9buXIZ3eZrlxwvTD1pnyOwciVuaZ4SeEVwbAvikgIeYNAxD1qf/RatE9Wrfvjb3+3SzSe+fvOLLjrjiH1c6yGuufEwTGsDeQFcEgDRFLA1CezK2llrpfTtJ3agbuzQurqUaJs/rqmumWXqRpw+0LS9xnF9m2CY5dv2/StXrtzSdzdq1HF9PM+8PB6P/6xYLPJ0/BLt9pBUJVssFu4NHOeubbXi7BIlbuUio8eOvyaVTN7Q1NQk0/HQNI+1uTf4Pdszpy16+dX/Lg9LrlTOrtbEOxFxAIW0EZqLmjstJ/Qb8vYpoSG+uLMIi44iVk3zxO/12f8Pn3zyyZZRGjSPRQcNCpL8ciFbvDGREFbvyrCwX79+FcmKqtM1Sbo5l8up1NWmby3TMCAkpIgF6eFcS8Osd955Z8O2DJWGhJj3p0iieA2HQaaERWuJQkpYrr/WCcmUVct3TVkDlfGpyyYqBxW4E3oE3p3Z5s8rUzEVAssBjw4VVBMg9KhtbeTE27KS+vh31abzwtRT0wfK3DlqS+utslkUqHwhh0AnGHREoOeB+326npeufFbq9WxHx6j079+/vxrTHlVlpS8tn6F1Wbwkh6353HxJFG5asmjRlrBw2LCRw1RVuj4MSR2dkiDJcpQPCgHeMk1rOs3ndrV2amcQWl1dHS+rsetimnZ1c3OzhCkZO1G9WCiK4urII6yv/y/KYR0wOC6khHOqYkJEWLSkAAHdrxxTwiKb8saPsd3y4ieffNI2sKebD1q1W79s2eHpVPoRXdd/QAcFUg+GjhGmXk1ZRWWzZVm/goB/dt68Obus1+2ooUMHhEF4RzIWP5q+lekPfXP5XlT28VHOtG7WM83PfNuWZu2EJUvSNXQjl3bCIggRx/M/sgNvypvLdk0Oq11tSy88q29Py5ihOMXRnG8CnZJBCUuJp4CoMYjt2ef9z+3gt58G4tyTZ8/u1Ca73WEab/5iyom1jn2T9fkn30vzhNa5QCBgKIgCiMkyUNTUI41S8rbvT797uzs9tctz2GGHVdJBlKqqne15jkztyvNDUOPaRt0wrgfPe5IWkQ4YMCYRjwenCYJ4nWWZtdRLoYTluq7NCcIfUej/bv78jtVeHXRQXUxRimU8r6Z4PhQJ4QVRRFIYhhhj/Fl9fX23RAy0fch1vRsUVbu4UCjwdGYYtVOO5zwEaEngezfPnzfvO1/R7LaQkOawpErlnAqVn80Tug7zf4RlegQ2tBgnaij/4s5aJaRGNWTIkJp0ZeUFFRWV1637/IvNA8zaRt4kUmna2P4s5qRZLQ2f75JmzkMGDaqqUOMnu557uyJJKq3D2Tx3iO5LGFiO/QePhLNWr1jxrTv5REl33p8iStLVGLWNl4mqtTEhjuuvtYNg8q4mLOrB7MeLP+4RWDOy6z9P0KGJIa0HxjxYbgCpmj2Br+r5widWMO3ImXet7g4S6ug5XrnmogN7Oc5dQuOmETGjCKGRB4FHQBQZDLqPnxj/XItXXftpqmbOV/cl7MD58aGH9jsukUzcKIjcoZSwCOKiItBMa+YRMabevmLhwg3Dhw/fH2P+ElEUz7MsS6KLUK2ZDJ1PtS6by9+0dPGihztaPH344Yf343nhZ7KsjEIIJQGQx/McfRmbPM/fhxD50/aanTtwX3D88cfvWygaNwmCcEpkpzzXtkmrqlq+7z/lGPqdy5cvpyPGv8XUv+AAABySSURBVNOj2wir96GHpjQlNenrhEXDQkpYXzTkT1zP6y/CBx9QNtspBx1vWzDNvul02cwgCIa0jczAEUnQHR/23HNP2Lhx0+0SLz5kGK1fdlfz9dZuhsoSIjTa84NrgiA4AtOX/OYey2jQmiQ1e55/Yybj/uW997a++UT7eSMPSwynKKJ4LYJQ+iph2V7wse15k1ct3zVlDe0yTZtWxx+1qef+fTGZQbJNYzCmM9GMyKcGQBAQAcRUtR2UVT32Ly+YdcxdD+6S5fuFv5jaL+lav0xDMNFa9yWuCAPgQjdCjXYFm1JMj/Xc94FGIt03YMY9dMuuTh2HHjpgPwLetclk8izEc4iupCWTSShm80t5XriaEG+1ZXnDFEW6XFGU4VTXNHSMJxJu4AfzLEuf+frrr3d4Rbd//0H9FUWgXt0Yep72zSdoRoAXhD9YRvGe+vp6+kLYoe6RcePGjZJk9beI5/pv3LgxGjFDF6+SyWTW94MHwHfvnz9/fre21HUK+M0f7nbCqtSE2Vz4tZDQB/iyIX/CunjwIqxe3ba76U46jjrqqHSirOKSqqrKaZ9//nm0ow81GlXRIhe3srJyQzafv9UFb86gH/ygpaP5i86IS/MBaqJskGUVL0wkkie3tLSAIratmlLSCoLAwwj9dcOGhnsOPbTvW9vLqQ0YPrya84LzRVG6GpNQBhJE/ivmABzf/9hy/fN2tYdF8aC5rO+b0vHVyPuNns/2sfQMiIiAKkQbf4DHSYDTVQVdiT/eyCm/X6Cl3t0ZeEeyTJzI1e5TM7AW+VeLemG01dLEcdRD8F0A4oODfIBEEnBFr7f1dOXVDZBc2EnvKjKBPn36JFKVlXTF9jrP8xKbd2WCPWp7NmZymRuI77/IccJpkiRdZNv2HlTnUU0TQs26YfxO5PHj9fVb32RiazbWr9/AA1VVvFbTtDMoOdKfaHs8nqf5pY8My5jmWtZzO7J5xMSJExXPC65EHHd5vligvYrRM0Nzv4SQT/WiPl3A8KeOToLozLPS2c92L2HJ6bOr4sIsuk8diZLu9PQY7ADBZ+tzJ2z8VH0BoL5t/sxOOtrJgkP4GkESRjc3N9Ou82h8czSALZmEsvKytc2NLTNARPMVgA3bI4zOiFpXVycnEokfEsyfl0wlT2lqahJoxb8siFv2SdQ07bOmxqZreB69umLFiu0u/Q8aNLIKeHeqJMlXozDYQliIo9uEkU8c1z93+eJdl3T/Kh7zzzmltjdPLpAD7yJs6kkw8xDYJvASDy6lVTUOas2eoSnHn2oKuEc2NBVWn/DYY906EG7RtGmpmN58TO+UdrH9xefDw3wr+HoRVImDMAw2b/KQhDCRblrPSbMLybL/2YHFALTP/vuPKSuvvDWZiB8S1SpxPH0Zmp7rPCGKwpOtrbmz0mXp0zzPk+hKdTKZJI7jLEWAZmazLS91Jtl+yCGDqpJJ4TxFUa/zA582PG+ZNipJkknCcHqh4D5QX/9Sl4uiJ5x4Yn8RczPDkAyhdWI0FKQvd9M0XVXVFriuPWvxwoXfef6qzXfvpqNX34Fl6aQ6qUITZkYe1uayBgAe7IDAZ+tbT9j4aXynExa9neHDh5dzsnpSz9qe09evX5+gSo5KCRQlGgdLCaxXzz02Zlpbb3KBe9nXWzZ2djTH1mCjtTepVGqQ6wcXCJI0YdOmTdEbMdp0w7TaesgEwWhsaHoUIf7O1auXdyjh2+ZhkamSJF6DwkAkEGzeSBXTEfmf2Z5z9ndFWNR3eO3ME47cr6zs56iY/QmXbwVwdRA4AgFNStM+Q0EDPlkJfKpqTUGQHtigm698nrMbzn7sMXtHzO+pG28Uq83sXjU8GpMGuNTY8OXenF0EYhQgpohRi5ZPq2t4EXgpmSHJyqfWKYnZA2bdu2V+e1eu//3vf/9AF6GLa3r0mEon/VAlCIJAtFjsQ9e2/+x5/oiQhEPapoFjutDieJ73ZwThnUuWLKH7F3T46NNnjFRba4/S4rH7fc+rpYs29Jztm1Ckkql627ZvLRZzi7viZZ1yyim1Bd2cqqnqJZlMhsat0fnpj6ZpTZZlPuhZ1qOLFy/udPjc4ZvsxAe7jbB6HvjD8nRZfFJVTJyBAhvowJ9ocF+AwAkI/Kshf8LGj9+cS6e7dkK+rn4UjRw54QAlrp6VTCauXr++rTyGhmOUNCKmRgh6772PniuaDxOf/BkHxX/07dvX6UrIQnvGPM+r1bT4CITQVMM0D9Mts22nYTqSBGOQ+GguWBCG4RK9aF5lmvk1HV2AoB4WEoILRVG4GgJf/L+dn+mkQvELx7LO3Nakh64C2JnvPTVxYqyqTBq4lyZex2eajkZ6DoiRB02VwXYdwJIKPpYhEDVI9dzbM3l5QSEIHmnwvTWFmNs4YdpDZmeu9+DkyULvqkSvWOgfU4XcM4VC/odCztRE1waj0BqNvBEEBIhH4AYAQrwMPDH5VE4pv6epvHpFV0LBr8pHw8KQF8f3qO7xO1HgKuiMeOq9K4riIoQ+8jxvb8dx4u1zpVRVbc4XCrMcy3h05cqVHR6r3H7NoUOH9pUU9Xae48fRUI0e7bksTdMsQRAet0z9vpdeeulbF2++jvEJJ5xQjhB3giCK1+f14p7t544KmsPQ53l+YeCTWY0b44s++OC7m3TyVbm7l7DKE2dXqvx0Slgo8rAwEMDgBAj+1ZDdlYQFdKxHLO1/P6bGp/CC8P/au9sYO6rzDuDnzOudmfuy9+6LDWsMAUIMIRACIUFJKClQN61oCMhUqRQaSIMSBfVDVQVFkRryKVVCW1WpkjRNpCKVqHlBLdCE4rwVXGIcQkJo7WCwY+Ms3mXX+3bvnbkzc87MaZ+5u46LIPba+wCV/vfLwnr32Xt/d+5/zjlz5pw/poHE1cdwQmlNRPWGaI9uEKlSD6WDZLuQ4oeFpQ+GSnVPpJt43XW3hVLOnBGGjUttW14ZRvUbFxYWxqgLSGcqOgDoClE1yVDIPE3Tx2zX/mLS6927lm7B1VdfvUEL62PVoK5WLgVWNYZlWcJ2g8Pdpe6Ho8h92LZtPTs7W05MTFiDwaB6b7NsXOZj6cu/zyssnnfE+L5fDdxSjZWAl5s2bZLj4+PqeB7fuG1ba6MXXnO60Z9oqfTSYn5G5H1aUtivtgETXiAKyxMmaAgnaor66HjX6Yw9uT/ubs9d++czi0vP+L43P5hXgwP+r4qNM/XqucRRZNljhV0rPD80csNpUWNLzRJvHgub71a9+Uv14nRoxX1RLMTCUVq4jiWMpYQT2GKZtppvdoRoTXw3aUzc9fSy/s/rvry2cHy5IL3g4osvEcb+7ObJ065ZXUF05YbhkqYcrJ6s6N9qvv+9vFB/Ozs9vf1ET1LH/l1aMSKO0xs3bNjwqWSQbF4dy6LQouOr027Px3H8Fcvy7rnvvm+eUGht27ZtcjDIr2+ONG+bPjx9ke25tNtVdUKv9l6w5L5BknyhdJyvP3qcJZfXcrI51Z9dt8A679Krxur12i0tT3zWKrNq0ihtAmFbbhVYB6cXbph65sz7hfjmK9HCqlxox+WGU7uo3R75E9tx3n/o0KEqPKg5TdvF9+NERI2WiBpNMTE2Xvbj/gNJv7+r1Wrui3vJC7YrF4W0B0U5ULayjRVabpnoMDdFw3fd0XSQbAp87y1hGG5VWp9B42WrG1jSMiI0aEmhRWdeneWPpoP0q3Hc/faTTz65pjEcuolWON7HbNu5o1S5S11CmuledQ2E0/c8/2tJPPil59nSq9VkniuLtpf2HE/QHSG/PkiMLI/uXUTfLaklTNuECmlKUxhVFkVR5qooTZ6XsihKp5TZwsLSwTPecNb3jtdtvvvmm0ffMOpeO5GlH20N4iudtC+KuEu1haJVHWgagFMTrh+JXJXCbTZEbeOEGEixWGs2f5qk6qezywvTbhDGlu2lvX5fOtKyZaHrke1s7ETBJXKQXuaYYqw/tyCESoRJl0SZ56LmR8KhDT1ovDD0Rd9koj4xLkTQ3L4YjXx+j6N+sNaW3G/6cJ1zzjkT9U7nIxPt0TukEGGW58Pjyverr6tdK9/30zhO/r670P3iU0/95KT3MNi6deu5mdKfbDaaf5gkSXB0JnppquNgZKQ9t7y0cG9RmPvr9eC/bNueffH6b7RYXxAEHa312ULI97bbnfctLC6eq8qiGiqhwKWurVJqQWv9T5Ef3f3gg/cf97alUw2htfz+ugXWlssvHw2jsVsjqT5LY1i0PPFqYNGg+3PTyzdMPbPpFQ0s6vlt3bqt7fjFxVG9/oF2p30LzYKvNo+ktavrDZGkw+WcKWgmJydFFAQizQfzge8fSjN10LGtw3meJ7Zjl3G/HwZ+7bSiLDbWo8bprm1t6veWPZo+0Y/jqpm+2qKimcLUJajVanGWZT8RuvzS3NzM9t27dx93kP3Fb+BKYN3uOO7HKbBK2tizuvAkRVSvQrFPu24nSeLUGw1HK02zC6Rt29bwwoeQ1ZiipGg6NrFKIWnBCPqJlbvzRUGZpVShtTZFmcXd3lwSx9+Ryv7LHT976V1djn2+3/jQts6ZQXTlhEo/2C7U78SzM4FttNB0ZdNzxCDLReDRVDJJz1DkLk3U8ESzNSIGtClHGAnbHW4wWt0WYtki7ndFRMsT9ykAE2FpLayyEJ5lhGVykWlVdTmzQohGrS4GSgm/01zMA/+Hi074hb128qOb/mad10K76irn3Jm5qzeMjX4xDILXFStTDlaXBqcQWBl+eE4X+jO9hYV/fuKJJ4b3jJ3Eg27AjprN94S18E/DMLxyYXnJrbqFQlbH70rLKNZa/zRL00ektJ5yXWsqzw11GelQiPI8m7AseX5Zlu+0bfuyLM/b1FpbXQGV6jmOs2A7ziM6z74wPTX18Mm0CE/i5Z3wr6xjYF09Wm8Gt4YmrwLLdX1R0gm8ENVVwkMz3RumnvEf4L5K+FKvnJrUUWtsSyHM9ZObTv/I/v37R1SaVQPitVpQBQuFWK3mC0XrWdM69HleXVGkhcxWD0LHscSRIwtiMIirW4/SNKlaatWOI0oNB9dXlpiliXee5y31+v3vSGG+Np0kO/bt2jXcS2mNDwqs0nI+5rreHaLQR1tY9HeVGjZYyTmMakKr4W6/dOmbur50v9vwQW81rQX/68Cifp8Rw4u2NE+MuvDDjefF0V2D/ZorZmdfuCeO+x/fu3fvr/vVv+E1UPdwkxtetkGU72uo7IZ0eeE0lffFSKshluYXBC09VPeH66W5dDXRFNXJTRWFGBnpiF5/OKRF3Xa6I8DoQgS+J3SeCteSwhRa+K4nEgoyPxi23KJQ9LQQlh+J1sSG53Vpf33Okf+6tzm566ZPf5pl7t9555032W53/qHVGnkPrcZQtd4tWdlVJ5Moop12/kWZ8u9+/MgjtMnFKc2Vete73jVei6Lfdz3/1qIo357nmUvv2+oQBx3HdL9is9nqeZ77wvLy8lwUhmme59IYE/i+36YdcuI4pj0SJYUsPSjwfZ8mz5fd/+0t7IwHyVcsrX/wau6U/nKH17oGVhR6t0R28TmpaVdZt7rxmc7sFFgHZ7o3Tj97xn2vZJfw2Bd9xbZtQaT1WY6wrq35/gcaYXTZzMyMoPnZi0fmxcTERDX1oRoXcqTwvUBkenhPZCEK4UhHpCoVzagpqEs2SCiUXWFJWX3wgjCsDtSVVlavlOLpOE6+l6bJQ4/v3HlK663TGFZeimoMazWwREnHPl2d8qugXF7uCQpU+uCvBhYFbbqydflwAu1wFdZjH6Uc7uBiGat6LZYZBpyhrdLo6LCFWFxcuCc15s/3PP74CV86/8a2bcH4aO2ccau4dsyVN+bLi28t475X5JmQphDuyvNQOheBXxtuUpLTRQoj6GRSrzdFnmZHW79KZyKq14URJa1DJShI6b3SaSE0XdVqtYRpRIvarz+Wydq3tRc9tHv/1IGbvsk3BEFb3QVB9GetVut2x3UnKTDolhYKq5VB+KTb7X1moPO7H1+nfQxoQwonDK8N/Nr7pZTvGPTjcGVn5+oETC0tOmlSeNJzyLOsOiZpXwWaCLp6bFRXL6mlalmFKovcsqxZ23F25Wn+raLmfn/nQw+tuSewxvPwSf34ugUWXSUcGYluHqt7f+0KGicazsGiMax+VogD08uvamCRDq35MxBioy7LC5M4uWZDe/RaUeZvomHaubn5o106akHRB5/mOVnCFn7giTxVwnKk0Dk1m61qIJnOZqtfpWUpY0zf87z9S4vLPzaWfLjIB489+uijh07qnTnmlyiwBsp81PXcT9im9CSdVksjaN0vsxKSruMLXeSiHjWrD/Jyr1uNSdB/Dx/0taR97I5Wrm4tGTathjerV19Xlr+hWKZ/c2U8Ozf7LaV7dxz47wNrvsL17x/a1mlI/ebXN5vXeVn6u47WZ6s88RaX5qvJjzYthhcnwjFSeHQCKGiDDlWFGH0A6YMXRKHICi0KKYSiFqFrV7eOUPeWVpZtjo6mmTT75vP8XhU0Hniu5/9ivQbXj/feXXjhhVc1Gq1PBmF4TdUylcPNSFe64k/1uv2/2PWjHfefauvq2OdBmxiHtn2Z43jvDf3abyutKCxdCiRqla7Oo6paekJUx2nVml3ZY4GOCxpg93w/0VrTHJQDpVIPW7b/UObbP9n14IMn1RM4ntV6/Pu6BdbmN72z3e5E15+5ofOlmmN51YdA2mJ5qbucDIrlfYdnP3z46V3fXc837mQBaEG9xujpp+eD3gW+J98sjbkkDOsXSynH0zR1aX9F2pWZ3uTh6xg281fnp6x8jwJK+W6N5thM50o9K4x5SpX6yaSX7+50oqnt29dnK7PLL7981HKCP4rC2u2u63Rcz3aosUQL+TmOZ7TW1JynjS+LlQ1s6UxqJN3fp0tpJDVMaOi7oBMJ7TJrSkMTiESpSmVMaeiHSknTfUvLaApBY4pqEKtUcZwkP8i0/qvnn356/mTMabjtPz54/ZkTQe0i0++/daQRXCJl+cY0ScZFnkZ0sNC9kTrNhFOIKsRKRd7U0rMFXSgoHKtaD73WagjpunTFQQm/Nqfr7T1LWf6IcN0f56X6+eWf+8cTbgWezGt58e+cddYFGzud8PaRkfaNQVibsCzbE7Ysi7yY6fZ7/6ZK/dVdO3bsWY+/9X9C6x1/0BgZsc7Ldf72Rj16t+PYb8lzNV4URVCWpU2htdrSq8LKcSigaOw2o16kY9vLaZodlNLaU0qxQxT5z44cObL/tTZm9WK3dQusTVdcEdSz8gLXc3/LsWi1Qhp493WcJHoQp6Up5PenfvnkK3I/2YkeHDQrXQgx5gbBmYMsO1sas8nxvMlsMNjU6Yye5TjOaFEUoV/z3TzLC2NMplTeL0szL0oznQwGz7uW9Xy/3z3UarUOxnF8YOfOnS+7TMyJPq8X/xw9z+Xl5BLHMZdEUeQVRSHLsjR0xixo/R5BQxTU1loZzKL/l6Wh0S0afaevlnFkKTVdW6zCl36HBr50Sd+rxqyMLEtDXwsae6Rv0sXCItdGyinV7++Ympo6pVUXaEWNSw/v7bTc2uasu7ClHblb2ra4sG7J1+t0MOEUIipz5ZtSO7ow1Twq2pFHSaNqzWauTRlbtjOd6/IXtnD2LjnOs4fd5u55Ez578113rds+l2t9n84///wrg6D+BiGML6W0okZTdpeWYt+vPW1Z5RPH2wZsrX/v2J/funVrp9kcPbc/iLekWXpOs9E6SwixJYzCySzP6YZ7KwwCUeRKl1LMp/34uazQtOXer6Qp91qWeWYqmHp234M8q6icymt7qd9dt8Ci4nRbzEEhnHB2ttyzZw+N5q6upjgc8X3tP+RFb3vbZCNobLIde7PKs3ZQCxq9OK4GdmpeLQtCv7u8uHREWmbGKPW81vqFtcypeu0TvHLP8IHbrgt96U02PPvMMk1fFwhns6VUy7XsUCnt2b5rtCvzXp72wlZnMSnVtBHWL7XK9mfW5Mzvff7zLEsVnaTAq36M07SFWOvNnu2dHdTC07RSI47nRt1u13IcKymFmDOFOTTQ6b7N4+PTx5tbd5IOrL+2roHF+kxf/eKrVv8fgvfV11rjM6i6jXfeac/t3m32vPGN5lN33nnU+bWyA88aXxJ+nEEAgcWAipIQgACPAAKLxxVVIQABBgEEFgMqSkIAAjwCCCweV1SFAAQYBBBYDKgoCQEI8AggsHhcURUCEGAQQGAxoKIkBCDAI4DA4nFFVQhAgEEAgcWAipIQgACPAAKLxxVVIQABBgEEFgMqSkIAAjwCCCweV1SFAAQYBBBYDKgoCQEI8AggsHhcURUCEGAQQGAxoKIkBCDAI4DA4nFFVQhAgEEAgcWAipIQgACPAAKLxxVVIQABBgEEFgMqSkIAAjwCCCweV1SFAAQYBBBYDKgoCQEI8AggsHhcURUCEGAQQGAxoKIkBCDAI4DA4nFFVQhAgEEAgcWAipIQgACPAAKLxxVVIQABBgEEFgMqSkIAAjwCCCweV1SFAAQYBBBYDKgoCQEI8AggsHhcURUCEGAQQGAxoKIkBCDAI4DA4nFFVQhAgEEAgcWAipIQgACPAAKLxxVVIQABBgEEFgMqSkIAAjwCCCweV1SFAAQYBBBYDKgoCQEI8AggsHhcURUCEGAQQGAxoKIkBCDAI4DA4nFFVQhAgEEAgcWAipIQgACPAAKLxxVVIQABBgEEFgMqSkIAAjwCCCweV1SFAAQYBBBYDKgoCQEI8AggsHhcURUCEGAQQGAxoKIkBCDAI4DA4nFFVQhAgEEAgcWAipIQgACPAAKLxxVVIQABBgEEFgMqSkIAAjwCCCweV1SFAAQYBBBYDKgoCQEI8AggsHhcURUCEGAQQGAxoKIkBCDAI4DA4nFFVQhAgEEAgcWAipIQgACPAAKLxxVVIQABBgEEFgMqSkIAAjwCCCweV1SFAAQYBBBYDKgoCQEI8AggsHhcURUCEGAQQGAxoKIkBCDAI4DA4nFFVQhAgEEAgcWAipIQgACPAAKLxxVVIQABBgEEFgMqSkIAAjwCCCweV1SFAAQYBBBYDKgoCQEI8AggsHhcURUCEGAQQGAxoKIkBCDAI4DA4nFFVQhAgEEAgcWAipIQgACPAAKLxxVVIQABBgEEFgMqSkIAAjwCCCweV1SFAAQYBBBYDKgoCQEI8AggsHhcURUCEGAQQGAxoKIkBCDAI4DA4nFFVQhAgEEAgcWAipIQgACPAAKLxxVVIQABBgEEFgMqSkIAAjwCCCweV1SFAAQYBBBYDKgoCQEI8AggsHhcURUCEGAQQGAxoKIkBCDAI4DA4nFFVQhAgEEAgcWAipIQgACPAAKLxxVVIQABBgEEFgMqSkIAAjwCCCweV1SFAAQYBBBYDKgoCQEI8AggsHhcURUCEGAQQGAxoKIkBCDAI4DA4nFFVQhAgEEAgcWAipIQgACPAAKLxxVVIQABBgEEFgMqSkIAAjwCCCweV1SFAAQYBBBYDKgoCQEI8AggsHhcURUCEGAQQGAxoKIkBCDAI4DA4nFFVQhAgEEAgcWAipIQgACPAAKLxxVVIQABBgEEFgMqSkIAAjwCCCweV1SFAAQYBBBYDKgoCQEI8AggsHhcURUCEGAQQGAxoKIkBCDAI4DA4nFFVQhAgEEAgcWAipIQgACPAAKLxxVVIQABBgEEFgMqSkIAAjwCCCweV1SFAAQYBBBYDKgoCQEI8AggsHhcURUCEGAQQGAxoKIkBCDAI4DA4nFFVQhAgEEAgcWAipIQgACPwP8Aui9io0AkPJYAAAAASUVORK5CYII=;clipPath=inset(38.33% 10.33% 38% 0%);" parent="1" vertex="1">
          <mxGeometry x="490" y="155.85" width="130" height="34.31" as="geometry" />
        </mxCell>
        <mxCell id="9lcuN-YRpTNTwfFY60Kl-68" value="MODEL DEPLOYMENT&lt;div&gt;-&lt;/div&gt;&lt;div&gt;LIVE INFERENCE STREAM&lt;/div&gt;" style="text;strokeColor=#666666;align=center;fillColor=#f5f5f5;html=1;verticalAlign=middle;whiteSpace=wrap;rounded=0;fontStyle=1;fontFamily=Helvetica;fontSize=15;rotation=0;fontColor=#333333;" parent="1" vertex="1">
          <mxGeometry x="827" y="379" width="123" height="250" as="geometry" />
        </mxCell>
        <mxCell id="9lcuN-YRpTNTwfFY60Kl-48" value="20240818_UFC_counting&lt;div&gt;_model_v1.0&lt;/div&gt;" style="text;strokeColor=none;align=center;fillColor=none;html=1;verticalAlign=middle;whiteSpace=wrap;rounded=0;fontSize=13;fontStyle=3" parent="1" vertex="1">
          <mxGeometry x="603.5" y="302" width="125" height="30" as="geometry" />
        </mxCell>
        <mxCell id="9lcuN-YRpTNTwfFY60Kl-70" value="" style="group" parent="1" vertex="1" connectable="0">
          <mxGeometry x="616.15" y="210" width="101.68999999999994" height="101.69" as="geometry" />
        </mxCell>
        <mxCell id="9lcuN-YRpTNTwfFY60Kl-43" value="" style="shape=image;verticalLabelPosition=bottom;labelBackgroundColor=default;verticalAlign=top;aspect=fixed;imageAspect=0;image=https://www.svgrepo.com/show/306619/pytorch.svg;imageBackground=none;" parent="9lcuN-YRpTNTwfFY60Kl-70" vertex="1">
          <mxGeometry x="28.42486238532115" y="29.99582568807338" width="45.85871559633028" height="45.85871559633028" as="geometry" />
        </mxCell>
        <mxCell id="9lcuN-YRpTNTwfFY60Kl-69" value="" style="shape=image;verticalLabelPosition=bottom;labelBackgroundColor=default;verticalAlign=top;aspect=fixed;imageAspect=0;image=https://static.thenounproject.com/png/643663-200.png;" parent="9lcuN-YRpTNTwfFY60Kl-70" vertex="1">
          <mxGeometry width="101.69" height="101.69" as="geometry" />
        </mxCell>
      </root>
    </mxGraphModel>
  </diagram>
</mxfile>
